<svg width="36" height="44" viewBox="0 0 36 44" fill="none" xmlns="http://www.w3.org/2000/svg">
<path d="M28 0C32.4183 0 36 3.58172 36 8V36C36 40.4183 32.4183 44 28 44H8C3.58172 44 0 40.4183 0 36V8C0 3.58172 3.58172 0 8 0H28Z" fill="#2563EB"/>
<path d="M28 0C32.4183 0 36 3.58172 36 8V36C36 40.4183 32.4183 44 28 44H8C3.58172 44 0 40.4183 0 36V8C0 3.58172 3.58172 0 8 0H28Z" stroke="#E5E7EB"/>
<path d="M28 34H8V10H28V34Z" stroke="#E5E7EB"/>
<path d="M28 31.5H8V11.5H28V31.5Z" stroke="#E5E7EB"/>
<path d="M10.5 14C10.5 13.3086 9.94141 12.75 9.25 12.75C8.55859 12.75 8 13.3086 8 14V27.125C8 28.8516 9.39844 30.25 11.125 30.25H26.75C27.4414 30.25 28 29.6914 28 29C28 28.3086 27.4414 27.75 26.75 27.75H11.125C10.7812 27.75 10.5 27.4688 10.5 27.125V14ZM26.3828 17.3828C26.8711 16.8945 26.8711 16.1016 26.3828 15.6133C25.8945 15.125 25.1016 15.125 24.6133 15.6133L20.5 19.7305L18.2578 17.4883C17.7695 17 16.9766 17 16.4883 17.4883L12.1133 21.8633C11.625 22.3516 11.625 23.1445 12.1133 23.6328C12.6016 24.1211 13.3945 24.1211 13.8828 23.6328L17.375 20.1445L19.6172 22.3867C20.1055 22.875 20.8984 22.875 21.3867 22.3867L26.3867 17.3867L26.3828 17.3828Z" fill="white"/>
</svg>
